<svg version="1.1" id="Laag_1" xmlns="http://www.w3.org/2000/svg" xmlns:xlink="http://www.w3.org/1999/xlink" x="0px" y="0px"
	 viewBox="0 31 75 75" style="enable-background:new 0 31 75 75;" xml:space="preserve">
<style type="text/css">
	.st0{fill:#FFFFFF;}
	.st3{fill:#8f3082;}
</style>
<circle id="rondje" class="st0" cx="37.5" cy="68.5" r="36.5"/>
<g id="mycompany">
	<g>
		<path class="st3" d="M27,61h4v-4h-4V61z M33,83L33,83v2h4V75h-4V83z M27,79h4v-4h-4V79z M33,61h4v-4h-4V61z M27,73h4v-4h-4V73z
			 M27,67h4v-4h-4V67z M39,79h4v-4h-4V79z M33,67h4v-4h-4V67z M43,69h-4v4h4V69z M49,69h-4v4h4V69z M45,79h4v-4h-4V79z M33,73h4v-4
			h-4V73z M53,63c-4.3,0-10,0-10,0s0-5.7,0-10c0-1-0.9-2-2-2c-4.2,0-13.9,0-18.1,0c-1,0-1.9,1-1.9,2.1c0,6.4,0,28.8,0,29.9
			s0.8,2,2,2h8v-2h-8v-4c0,0,0-18,0-24c0-1.2,0-2,0-2s1,0,2,0s2,0,2,0s8.1,0,12,0c1.2,0,2,0,2,0s0,0.8,0,2.1v8c0,1.4,0.8,1.9,2,1.9
			h8c1.2,0,2,0,2,0s0,0.8,0,2c0,4.7,0,16,0,16H39v2h14c1,0,2-1,2-2V65C55,63.8,54.1,63,53,63z"/>
	</g>
</g>
</svg>
